<svg width="138" height="65" viewBox="0 0 138 65" fill="none" xmlns="http://www.w3.org/2000/svg">
<path d="M137.041 18.6055V22.9205H131.068V18.6055H137.041ZM137.041 24.257V47.3443H131.068V24.257H134.04H137.041Z" fill="#084892"/>
<path d="M112.008 38.6761V47.3443H105.974L105.906 18.6055H112.229L112.008 33.8035L120.3 24.2341H126.782L118.62 33.246L127.405 47.3443H120.816L114.615 36.8813L112.008 38.6761Z" fill="#084892"/>
<path d="M102.281 18.6055V22.9205H96.3074V18.6055H102.281ZM102.281 24.2876V47.3443H96.3074V24.2876H102.281Z" fill="#084892"/>
<path d="M66.7825 35.9712V47.343H60.6723V29.617C60.6723 28.3492 60.6571 27.2876 60.6192 26.4399C60.5812 25.5922 60.5432 24.9201 60.4976 24.2633H66.2885C66.3189 24.3931 66.3949 24.5993 66.4177 25.0423C66.4481 25.4853 66.4785 25.9817 66.5013 26.5316C66.5241 27.0814 66.5545 27.6008 66.5773 28.0819C66.6001 28.5707 66.6077 28.9144 66.6077 29.1282H66.6913C67.2689 27.532 67.8008 26.3788 68.2796 25.6838C68.7432 25.0117 69.298 24.523 69.9363 24.2098C70.5747 23.8967 71.3727 23.7363 72.3302 23.7363C73.113 23.7363 73.7438 23.8433 74.2225 24.0571V29.09C73.2498 28.8762 72.3758 28.7693 71.6083 28.7693C70.0883 28.7693 68.8952 29.3802 68.0516 30.5869C67.2081 31.7936 66.7825 33.5883 66.7825 35.9712Z" fill="#084892"/>
<path d="M16.7845 42.454C20.7515 42.454 23.495 40.5676 25.0149 36.8025L30.7147 38.8493C29.4835 41.7132 27.6824 43.8517 25.3113 45.2493C22.9402 46.6469 20.0903 47.3495 16.7769 47.3495C13.433 47.3495 10.5832 46.7385 8.23487 45.5242C5.88658 44.3099 4.08546 42.5457 2.85432 40.2469C1.62317 37.9404 1 35.1758 1 31.9452C1 28.6841 1.59277 25.9347 2.77832 23.6817C3.96387 21.4364 5.70419 19.7257 8.01448 18.5495C10.3248 17.3734 13.1443 16.793 16.4881 16.793C20.1587 16.793 23.1454 17.4956 25.4557 18.8932C27.766 20.2908 29.3847 22.3452 30.3119 25.0564L24.5437 26.5533C24.0574 25.0641 23.0998 23.8803 21.6711 23.002C20.2499 22.1085 18.5704 21.6732 16.6325 21.6732C13.6762 21.6732 11.4267 22.5438 9.8992 24.2851C8.37167 26.0264 7.6041 28.5772 7.6041 31.9376C7.6041 34.2135 7.95369 36.1304 8.66046 37.6884C9.35962 39.2464 10.4008 40.4302 11.7687 41.2397C13.1291 42.0493 14.801 42.454 16.7845 42.454Z" fill="#084892"/>
<path d="M84.9002 35.987V47.3435H78.7824V29.6404C78.7824 28.3726 78.7672 27.3111 78.7292 26.4633C78.6912 25.6156 78.6608 24.913 78.6152 24.2562H84.4518C84.4822 24.386 84.505 24.6228 84.5278 25.0657C84.5582 25.5087 84.5886 26.0051 84.6114 26.555C84.6418 27.1049 84.6646 27.6242 84.6874 28.1053C84.7102 28.5941 84.7178 28.9378 84.7178 29.1516H84.8014C85.3789 27.5555 85.9109 26.4099 86.3897 25.7073C86.8533 25.0352 87.408 24.5464 88.0464 24.2333C88.6848 23.9201 89.4827 23.7598 90.4403 23.7598C91.2231 23.7598 91.8538 23.8667 92.3326 24.0805V29.1058C91.3599 28.892 90.4859 28.7851 89.7183 28.7851C88.1908 28.7851 87.0053 29.3884 86.1617 30.6027C85.3257 31.8094 84.9002 33.6118 84.9002 35.987Z" fill="#084892"/>
<path d="M55.885 41.8522V27.2422C54.1827 28.846 52.108 29.7854 49.8053 30.4804V36.3916C49.8053 38.3085 49.3569 39.8742 48.4526 41.1038C47.5482 42.3257 46.3626 42.9367 44.8959 42.9367C43.5128 42.9367 42.4716 42.4403 41.7801 41.4398C41.0885 40.4393 40.7389 38.9501 40.7389 36.9644V30.488C38.4286 29.7701 36.3615 28.8766 34.6592 27.2498V38.6446C34.6592 41.4933 35.3204 43.6622 36.6503 45.1362C37.9802 46.6102 39.8801 47.351 42.3576 47.351C44.0752 47.351 45.5571 46.9615 46.8034 46.1749C48.0498 45.3882 49.0757 44.1434 49.8813 42.4174H49.9877C49.9877 42.9061 50.0105 43.5324 50.0485 44.2885C50.0941 45.0446 50.3373 46.3429 50.4209 47.351H56.037C55.9762 46.6255 55.9382 45.4188 55.9078 44.5711C55.9002 43.7233 55.885 42.8145 55.885 41.8522Z" fill="#084892"/>
<path d="M54.2964 19.5957C50.8234 20.9399 46.8944 21.0621 43.2313 20.1303C40.9362 19.5117 38.7095 18.5189 36.726 17.1289C36.726 17.2129 36.7184 17.2969 36.7108 17.3733C36.6348 18.9695 36.7488 20.5809 37.1136 22.1313C37.4708 23.674 38.0863 25.1709 39.0211 26.4158C39.9407 27.6759 41.225 28.6382 42.6993 29.0964C44.1737 29.5394 45.7848 29.463 47.2667 28.9284C48.7563 28.4091 50.1166 27.5079 51.287 26.4081C53.4681 24.3537 55.0336 21.6807 56.0139 18.8091C55.8619 18.8855 55.7175 18.9618 55.5656 19.0382C55.1628 19.2673 54.7296 19.4201 54.2964 19.5957Z" fill="#F8AF2C"/>
<path d="M46.9553 4.2473C47.5633 4.53751 48.194 4.7819 48.84 4.99574C50.132 5.40052 51.4771 5.70601 52.8526 5.71364C53.5366 5.71364 54.2282 5.63727 54.8665 5.40052C55.1021 5.32414 55.3149 5.20195 55.5201 5.07212C55.2997 4.68262 55.0641 4.30076 54.7905 3.94181C53.8102 2.62057 52.4195 1.59718 50.8463 1.13895C50.056 0.925105 49.2352 0.841095 48.422 0.894555C47.6089 0.948016 46.8109 1.15422 46.0509 1.44444C45.4354 1.68883 44.8502 2.00195 44.2954 2.3609C44.5766 2.66639 44.8958 2.94133 45.2378 3.201C45.7773 3.60577 46.3549 3.94945 46.9553 4.2473Z" fill="#F8AF2C"/>
<path d="M58.4384 17.1457L57.8912 17.5734C57.7088 17.7109 57.534 17.8636 57.3364 17.9935L56.8121 18.3219C55.9153 21.5524 54.3118 24.6378 51.8951 27.0436C51.1731 27.7538 50.3752 28.3954 49.5088 28.93C55.3757 27.1887 59.6999 21.8655 59.9963 15.4961C59.6695 15.9085 59.3123 16.3056 58.9324 16.6722L58.4384 17.1457Z" fill="#F8AF2C"/>
<path d="M56.7888 8.5913C56.5304 7.46863 56.1352 6.36887 55.588 5.35312C55.3828 5.49822 55.1625 5.62042 54.9269 5.70443C54.2733 5.97937 53.5741 6.11684 52.875 6.18557C52.1758 6.26195 51.4614 6.26195 50.7546 6.20849C50.0479 6.14739 49.3487 6.02519 48.6571 5.84954C47.9732 5.66624 47.2968 5.43713 46.628 5.16219C45.9669 4.87961 45.3285 4.54357 44.7205 4.1388C44.2873 3.84858 43.8618 3.52018 43.4818 3.12305C42.9878 3.50491 42.5318 3.92495 42.0986 4.36791C40.9739 5.52877 40.0467 6.87292 39.2868 8.30108C38.8992 9.01135 38.5724 9.74452 38.276 10.493C37.9796 11.2414 37.7212 12.0051 37.5084 12.7841C37.3336 13.4257 37.1817 14.0672 37.0601 14.7164C38.9448 16.45 41.2703 17.7483 43.7478 18.5655C45.3969 19.0925 47.1144 19.4209 48.8623 19.5278C50.6027 19.6271 52.3734 19.4896 54.0833 19.039C54.5089 18.9092 54.9421 18.8099 55.3448 18.6266C55.6564 18.5044 55.9756 18.3899 56.2796 18.2371C56.7432 16.6944 57.0548 15.0982 57.1536 13.4791C57.2372 11.8524 57.146 10.1951 56.7888 8.5913Z" fill="#F8AF2C"/>
<path d="M55.8926 5.19384C56.455 6.22486 56.8653 7.34753 57.1237 8.50075C57.8457 11.5556 57.6557 14.7862 56.8273 17.8105L56.9413 17.7571C57.1389 17.6578 57.3213 17.528 57.5113 17.4134L58.0813 17.0544L58.5981 16.6344C59.0996 16.222 59.5556 15.7638 59.9584 15.2597C59.966 15.1604 59.9736 15.0611 59.9736 14.9542C60.0876 11.0669 58.6893 7.49264 56.3258 4.78906C56.2346 4.90362 56.1282 5.01054 56.0218 5.10219C55.9762 5.14038 55.9382 5.17092 55.8926 5.19384Z" fill="#F8AF2C"/>
<path d="M43.4973 1.09213C43.5885 1.34415 43.6949 1.61909 43.8849 1.86349C43.9229 1.91695 43.9609 1.96277 44.0065 2.01623C44.6297 1.67256 45.2756 1.3747 45.952 1.16086C47.4491 0.656802 49.0983 0.557518 50.6182 0.954655C49.0071 0.343676 47.2592 0 45.4352 0C44.8273 0 44.2345 0.0381862 43.6493 0.114559C43.5885 0.198568 43.5353 0.282578 43.5049 0.381862C43.4365 0.595704 43.4365 0.832459 43.4973 1.09213Z" fill="#F8AF2C"/>
<path d="M54.8967 3.87169C55.1703 4.22301 55.4287 4.59723 55.6567 4.98673C55.6947 4.96382 55.7251 4.94091 55.7555 4.91036C55.8619 4.81107 55.9607 4.69651 56.0443 4.58196C55.2843 3.78005 54.4408 3.06979 53.5288 2.45117C54.0304 2.87122 54.494 3.34473 54.8967 3.87169Z" fill="#F8AF2C"/>
<path d="M35.3657 12.7463C35.5557 12.9906 35.7533 13.2274 35.9585 13.4565C36.0497 13.0594 36.1561 12.6622 36.2701 12.2651C36.7793 10.6384 37.4556 9.05747 38.36 7.6064C39.2568 6.16297 40.3511 4.83409 41.6202 3.71142C42.0914 3.29137 42.593 2.90187 43.1174 2.55819C43.0946 2.53528 43.0718 2.51237 43.0566 2.48182C42.8134 2.18397 42.6158 1.81738 42.4638 1.42025C42.3574 1.08421 42.3118 0.709986 42.3574 0.328125C38.3752 1.18349 34.9933 3.66559 32.9338 7.04125C32.9794 7.49184 33.0554 7.94244 33.1618 8.3854C33.5494 9.94339 34.3246 11.4327 35.3657 12.7463Z" fill="#F8AF2C"/>
<path d="M35.9054 22.4383C35.4874 20.7581 35.3278 19.0321 35.4038 17.3137C35.419 16.9319 35.457 16.55 35.495 16.1681C34.8034 15.5877 34.1499 14.9538 33.5419 14.2665C32.6527 13.2355 31.8852 12.0822 31.3076 10.8145C30.9656 12.0593 30.7832 13.3729 30.7832 14.7324C30.7832 20.4526 34.0359 25.4092 38.778 27.8531C38.5501 27.6163 38.3449 27.372 38.1473 27.1199C37.0529 25.73 36.3386 24.1032 35.9054 22.4383Z" fill="#F8AF2C"/>
<path d="M80.6216 57.8759C80.6216 56.2568 81.8983 55.4473 84.4442 55.4473C87.1269 55.4473 88.4644 56.1652 88.4644 57.6086C88.4644 57.7384 88.4264 57.8454 88.3428 57.937C88.2592 58.021 88.1528 58.0668 88.0236 58.0668H86.9293C86.5797 58.0668 86.2833 57.9141 86.0401 57.6086C85.797 57.3031 85.3258 57.1504 84.6266 57.1504C83.6614 57.1504 83.1751 57.3948 83.1751 57.8759C83.1751 58.105 83.3651 58.2883 83.745 58.4411C84.125 58.5938 84.5886 58.7236 85.1358 58.8382C85.683 58.9527 86.2225 59.0979 86.7697 59.2735C87.3093 59.4492 87.7729 59.7317 88.1528 60.1136C88.5328 60.4955 88.7228 60.9843 88.7228 61.5723C88.7228 63.1914 87.3777 64.001 84.6874 64.001C81.9971 64.001 80.652 63.2831 80.652 61.8473C80.652 61.7098 80.6976 61.6029 80.7812 61.5112C80.8648 61.4272 80.9788 61.3814 81.108 61.3814H82.2023C82.5519 61.3814 82.8483 61.5341 83.0915 61.8396C83.3347 62.1451 83.8058 62.2979 84.505 62.2979C85.6222 62.2979 86.1845 62.0535 86.1845 61.5723C86.1845 61.3432 85.9945 61.1599 85.6146 61.0072C85.2346 60.8544 84.771 60.7246 84.2238 60.6024C83.6766 60.4878 83.1295 60.3427 82.5899 60.1671C82.0503 59.9914 81.5867 59.7165 81.2068 59.327C80.8116 58.9298 80.6216 58.4487 80.6216 57.8759Z" fill="#084892"/>
<path d="M95.3422 62.206L96.3453 62.1144H96.6189C96.7481 62.1144 96.8621 62.1602 96.9457 62.2442C97.0293 62.3282 97.0749 62.4428 97.0749 62.5726V63.3745C97.0749 63.4815 97.0293 63.5807 96.9457 63.6724C96.8621 63.7564 96.7481 63.8175 96.6189 63.8328C96.1173 63.9321 95.4714 63.9855 94.6658 63.9855C92.5607 63.9855 91.512 62.8552 91.512 60.6022V53.5225C91.512 53.385 91.5576 53.2781 91.6412 53.1865C91.7247 53.1025 91.8311 53.0566 91.9603 53.0566H93.6019C93.7311 53.0566 93.8375 53.1025 93.921 53.1865C94.0046 53.2705 94.0502 53.385 94.0502 53.5225V56.0352H96.0945C96.2237 56.0352 96.3301 56.081 96.4137 56.165C96.4973 56.249 96.5429 56.3636 96.5429 56.4934V57.3869C96.5429 57.5244 96.4973 57.6313 96.4137 57.7153C96.3301 57.7994 96.2237 57.8452 96.0945 57.8452H94.0502V60.6022C94.0502 61.1139 94.1642 61.5111 94.3998 61.786C94.6354 62.0609 94.947 62.206 95.3422 62.206Z" fill="#084892"/>
<path d="M99.6438 60.3649V56.0575C99.6438 55.92 99.6894 55.8131 99.773 55.7215C99.8566 55.6374 99.963 55.5916 100.092 55.5916H101.734C101.863 55.5916 101.969 55.6374 102.053 55.7215C102.136 55.8055 102.182 55.92 102.182 56.0575V60.3649C102.182 61.5716 102.646 62.1673 103.573 62.1673C104.181 62.1673 104.842 61.8083 105.549 61.0828V56.0499C105.549 55.9124 105.594 55.8055 105.678 55.7138C105.762 55.6298 105.868 55.584 105.997 55.584H107.631C107.76 55.584 107.874 55.6298 107.958 55.7138C108.041 55.7978 108.087 55.9124 108.087 56.0499V63.3739C108.087 63.5038 108.041 63.6107 107.958 63.7023C107.874 63.7864 107.76 63.8322 107.631 63.8322H105.997C105.868 63.8322 105.762 63.7864 105.678 63.7023C105.594 63.6183 105.549 63.5038 105.549 63.3739V62.8928C104.705 63.6183 103.808 63.9849 102.858 63.9849C101.908 63.9849 101.133 63.6871 100.533 63.0914C99.9402 62.4957 99.6438 61.5945 99.6438 60.3649Z" fill="#084892"/>
<path d="M114.478 63.9855C113.452 63.9855 112.601 63.6189 111.91 62.8781C111.226 62.1449 110.876 61.0834 110.876 59.7087C110.876 58.334 111.233 57.28 111.948 56.5468C112.662 55.8137 113.619 55.4471 114.82 55.4471C115.443 55.4471 116.15 55.5769 116.941 55.829V53.5225C116.941 53.385 116.986 53.2781 117.07 53.1865C117.153 53.1025 117.26 53.0566 117.389 53.0566H119.023C119.152 53.0566 119.266 53.1025 119.35 53.1865C119.433 53.2705 119.479 53.385 119.479 53.5225V63.3745C119.479 63.5044 119.433 63.6113 119.35 63.7029C119.266 63.7869 119.152 63.8328 119.023 63.8328H117.617C117.488 63.8328 117.374 63.7869 117.298 63.7029C117.214 63.6189 117.176 63.5044 117.176 63.3745V63.1454C116.401 63.7029 115.504 63.9855 114.478 63.9855ZM113.923 57.8452C113.642 58.2347 113.505 58.8533 113.505 59.7163C113.505 60.5717 113.635 61.1979 113.901 61.5874C114.167 61.9769 114.562 62.1755 115.094 62.1755C115.626 62.1755 116.241 61.9464 116.948 61.4958V57.5626C116.317 57.364 115.785 57.2648 115.352 57.2648C114.676 57.2648 114.205 57.4557 113.923 57.8452Z" fill="#084892"/>
<path d="M122.731 54.0192V53.7671C122.731 53.4998 122.807 53.2936 122.952 53.1332C123.104 52.9805 123.309 52.8965 123.575 52.8965H124.487C124.745 52.8965 124.951 52.9729 125.103 53.1256C125.255 53.2783 125.331 53.4922 125.331 53.7595V54.0115C125.331 54.2788 125.255 54.485 125.11 54.6454C124.958 54.7982 124.753 54.8822 124.487 54.8822H123.575C123.317 54.8822 123.111 54.8058 122.959 54.6454C122.807 54.5003 122.731 54.2865 122.731 54.0192ZM122.762 63.3748V56.2416C122.762 56.1041 122.807 55.9972 122.891 55.9132C122.975 55.8292 123.081 55.7834 123.21 55.7834H124.852C124.981 55.7834 125.095 55.8292 125.171 55.9132C125.255 55.9972 125.293 56.1118 125.293 56.2416V63.3748C125.293 63.5122 125.247 63.6192 125.163 63.7032C125.08 63.7872 124.973 63.833 124.844 63.833H123.203C123.073 63.833 122.959 63.7872 122.883 63.7032C122.807 63.6192 122.762 63.5122 122.762 63.3748Z" fill="#084892"/>
<path d="M129.267 62.9012C128.507 62.1757 128.12 61.1141 128.12 59.7088C128.12 58.3036 128.5 57.242 129.267 56.5241C130.027 55.8062 131.129 55.4473 132.558 55.4473C133.987 55.4473 135.089 55.8062 135.849 56.5241C136.609 57.242 136.996 58.3036 136.996 59.7088C136.996 61.1141 136.616 62.1757 135.849 62.9012C135.081 63.6267 133.994 63.9857 132.566 63.9857C131.137 63.9857 130.035 63.6267 129.267 62.9012ZM131.129 57.7613C130.825 58.1661 130.673 58.8153 130.673 59.7088C130.673 60.6024 130.825 61.2515 131.129 61.664C131.433 62.0764 131.912 62.2826 132.566 62.2826C133.219 62.2826 133.698 62.0764 134.002 61.664C134.306 61.2515 134.458 60.6024 134.458 59.7088C134.458 58.8153 134.306 58.1661 134.002 57.7613C133.698 57.3566 133.219 57.1504 132.566 57.1504C131.912 57.1504 131.433 57.3566 131.129 57.7613Z" fill="#084892"/>
<path d="M75.0283 58.5469H1.40283" stroke="#084892" stroke-width="2" stroke-miterlimit="10" stroke-linecap="round"/>
</svg>
